<?xml version="1.0" encoding="UTF-8" standalone="no"?>
<!-- Created with Inkscape (http://www.inkscape.org/) -->
<svg
   xmlns:dc="http://purl.org/dc/elements/1.1/"
   xmlns:cc="http://creativecommons.org/ns#"
   xmlns:rdf="http://www.w3.org/1999/02/22-rdf-syntax-ns#"
   xmlns:svg="http://www.w3.org/2000/svg"
   xmlns="http://www.w3.org/2000/svg"
   xmlns:sodipodi="http://sodipodi.sourceforge.net/DTD/sodipodi-0.dtd"
   xmlns:inkscape="http://www.inkscape.org/namespaces/inkscape"
   width="744.09448819"
   height="1052.3622047"
   id="svg2"
   sodipodi:version="0.32"
   inkscape:version="0.46"
   sodipodi:docname="logo.svg"
   inkscape:output_extension="org.inkscape.output.svg.inkscape">
  <defs
     id="defs4">
    <inkscape:perspective
       sodipodi:type="inkscape:persp3d"
       inkscape:vp_x="0 : 526.18109 : 1"
       inkscape:vp_y="0 : 1000 : 0"
       inkscape:vp_z="744.09448 : 526.18109 : 1"
       inkscape:persp3d-origin="372.04724 : 350.78739 : 1"
       id="perspective10" />
  </defs>
  <sodipodi:namedview
     id="base"
     pagecolor="#ffffff"
     bordercolor="#666666"
     borderopacity="1.0"
     gridtolerance="10000"
     guidetolerance="10"
     objecttolerance="10"
     inkscape:pageopacity="0.0"
     inkscape:pageshadow="2"
     inkscape:zoom="0.5"
     inkscape:cx="445.93632"
     inkscape:cy="581.17398"
     inkscape:document-units="px"
     inkscape:current-layer="layer1"
     showgrid="false"
     inkscape:window-width="1280"
     inkscape:window-height="1008"
     inkscape:window-x="0"
     inkscape:window-y="16" />
  <metadata
     id="metadata7">
    <rdf:RDF>
      <cc:Work
         rdf:about="">
        <dc:format>image/svg+xml</dc:format>
        <dc:type
           rdf:resource="http://purl.org/dc/dcmitype/StillImage" />
      </cc:Work>
    </rdf:RDF>
  </metadata>
  <g
     inkscape:label="Layer 1"
     inkscape:groupmode="layer"
     id="layer1">
    <path
       style="font-size:40px;font-style:normal;font-weight:normal;fill:#000000;fill-opacity:1;stroke:none;stroke-width:1px;stroke-linecap:butt;stroke-linejoin:miter;stroke-opacity:1;font-family:Bitstream Vera Sans"
       d="M 308.24333,167.19891 C 308.24333,189.71024 308.24333,212.22155 308.24333,234.73287 C 290.48383,233.36834 279.35329,210.34179 288.90488,195.43929 C 294.09216,176.78488 290.57161,155.26634 277.62728,140.50168 C 257.25884,127.48273 226.75052,149.14588 232.31574,172.66634 C 231.11787,189.73321 237.99483,207.40819 231.34916,223.96017 C 213.93796,226.82841 201.21987,202.18685 213.03986,189.3686 C 221.26821,172.55467 206.68014,152.39359 218.39578,136.53239 C 238.16762,119.8979 267.0775,118.62585 290.83411,125.86659 C 304.63868,134.071 311.55457,151.67376 308.24333,167.19891 z M 418.73536,177.48886 C 428.23576,150.63521 389.57361,124.44692 368.19159,143.30894 C 343.39309,164.17298 353.80228,211.16934 385.24531,219.35176 C 406.38724,220.61113 423.87358,197.60937 418.73536,177.48886 z M 437.11739,220.84647 C 443.88479,252.23671 411.02234,284.15534 379.84253,276.47506 C 372.95462,258.3361 399.58709,262.75653 407.50543,254.08353 C 417.09191,236.55841 391.00889,224.92051 376.72904,230.80952 C 356.0432,232.91597 340.68546,214.05098 336.73096,195.53299 C 329.7855,167.02455 344.17328,131.7071 373.76703,123.03544 C 391.80539,118.4837 409.52877,126.43134 427.1083,129.43114 C 440.67548,139.35766 442.94557,158.93618 437.23248,173.82862 C 434.6824,189.43212 438.03359,205.17656 437.11739,220.84647 z M 531.625,79.28485 C 501.71918,101.74005 492.22048,130.07618 505.08438,130.90809 C 559.85662,137.12512 487.93686,159.85807 495.97989,182.58089 C 504.14278,193.59641 502.46229,216.80096 486.15847,218.46993 C 472.00798,217.67711 470.54023,199.40392 474.04503,188.81224 C 483.27807,174.06932 477.56277,156.67321 472.80813,141.51082 C 461.30188,110.71396 490.02736,74.92702 522.26813,77.49889 C 525.44214,77.72993 528.58878,78.33146 531.625,79.28485 z"
       id="flowRoot2383"
       sodipodi:nodetypes="ccccccccccccccccccccccccccccccc" />
    <text
       xml:space="preserve"
       style="font-size:25.6199646px;font-style:normal;font-weight:normal;fill:#000000;fill-opacity:1;stroke:none;stroke-width:1px;stroke-linecap:butt;stroke-linejoin:miter;stroke-opacity:1;font-family:Bitstream Vera Sans"
       x="368.91989"
       y="310.93674"
       id="text2471"><tspan
         sodipodi:role="line"
         x="368.91989"
         y="310.93674"
         id="tspan2479"
         style="font-style:normal;font-variant:normal;font-weight:normal;font-stretch:normal;text-align:center;text-anchor:middle;font-family:DejaVu Sans;-inkscape-font-specification:DejaVu Sans">nikki's Game Framework</tspan></text>
  </g>
</svg>
